<svg width="800" height="800" viewBox="0 0 800 800" fill="none" xmlns="http://www.w3.org/2000/svg">
<path d="M699.5 167C702.814 167.004 705.992 168.322 708.335 170.665C710.678 173.008 711.996 176.186 712 179.5V579.5C711.996 582.814 710.678 585.992 708.335 588.335C705.992 590.678 702.814 591.996 699.5 592H499.5C482.711 592 466.136 595.764 450.993 603.015C444.419 606.163 438.188 609.933 432.379 614.262C424.812 619.903 412 614.961 412 605.523V254.5C412.026 231.302 421.253 209.061 437.657 192.657C454.061 176.253 476.302 167.026 499.5 167H699.5ZM299.5 167C322.698 167.026 344.939 176.253 361.343 192.657C377.747 209.061 386.974 231.302 387 254.5V605.511C387 614.947 374.196 619.888 366.629 614.251C360.816 609.92 354.58 606.15 348.001 603.002C332.859 595.757 316.286 591.998 299.5 592H99.5C96.1859 591.996 93.0085 590.678 90.665 588.335C88.3216 585.992 87.0035 582.814 87 579.5V179.5C87.0035 176.186 88.3216 173.008 90.665 170.665C93.0085 168.322 96.1859 167.004 99.5 167H299.5Z" fill="white" style="fill:white;fill-opacity:1;"/>
</svg>
